<?xml version="1.0" encoding="utf-8"?>
<!-- Generator: Adobe Illustrator 22.0.1, SVG Export Plug-In . SVG Version: 6.00 Build 0)  -->
<svg version="1.1" id="图层_1" xmlns="http://www.w3.org/2000/svg" xmlns:xlink="http://www.w3.org/1999/xlink" x="0px" y="0px"
	 viewBox="0 0 988 380" style="enable-background:new 0 0 988 380;" xml:space="preserve">
<style type="text/css">
	.st0{fill:#495060;}
	.st1{fill:#FFFFFF;}
	.st2{font-family:'STYuanti-SC-Regular';}
	.st3{font-size:130.96px;}
	.st4{fill:none;}
</style>
<title>签到logo</title>
<path class="st0" d="M90.3,26h800.3C929,26,960,57,960,95.3v189.3c0,38.3-31,69.3-69.3,69.3H90.3C52,354,21,323,21,284.7V95.3
	C21,57,52,26,90.3,26z"/>
<text transform="matrix(1 0 0 1 350.17 232.82)" class="st1 st2 st3">签到系统</text>
<path class="st1" d="M232.4,194.5c2.6,11.8,0.7,24.3-5.4,34.8c-0.2,0.4-0.7,0.5-1.1,0.3c-6.5-3.5-16.9-2.5-25,2.9l-9,5.9
	c-2,1.3-2.6,3.4-1.4,4.6l7.9,7.9c0.2,0.2,0.2,0.4,0,0.6c0,0-0.1,0.1-0.2,0.1c-8.7,2.3-17.8,2.3-26.4-0.2
	c-15.7-4.4-28-16.7-32.5-32.4c-10.2-36.6,21.8-69.3,58.3-60.4C215.1,162.8,228.6,176.8,232.4,194.5z"/>
<path class="st1" d="M271.8,284.1l-6.9,4c-7.3,4.2-17.8,3.1-23.4-2.5l-37-37c-0.9-0.9-0.9-2.3-0.1-3.2c0.2-0.2,0.5-0.4,0.7-0.5
	l6.9-4c7.3-4.2,17.8-3.1,23.4,2.5l37,37c0.9,0.9,0.9,2.3,0.1,3.2C272.3,283.8,272,284,271.8,284.1z"/>
<path class="st4" d="M242.4,241.4c10-15.7,13.7-35.8,7.6-56.8c-6.3-21.6-23.2-38.4-44.8-44.7c-26.6-7.7-51.8,0.4-68.4,17
	c-0.8,0.8-1.5,1.6-2.3,2.4c-0.4,0.4-0.7,0.8-1.1,1.2c-0.7,0.8-1.4,1.7-2.1,2.5s-1.3,1.7-2,2.6c-1.3,1.8-2.4,3.6-3.5,5.5
	c-0.6,0.9-1.1,1.9-1.6,2.9c-0.2,0.5-0.5,1-0.7,1.5c-0.5,1-0.9,2-1.4,3c-0.6,1.5-1.2,3.1-1.8,4.7c-12.1,35.6,7,74.2,42.5,86.3
	c16.4,5.6,34.2,4.7,50-2.5"/>
<path class="st1" d="M269,203.4c0.4,17.1-4.6,33.9-14.1,48.2c-0.4,0.6-1.3,0.8-1.9,0.4c-0.1,0-0.1-0.1-0.2-0.2l-3.8-3.8
	c-3.7-3.6-4.6-9.2-2.5-13.9c7.2-15.5,8.5-33.1,3.5-49.4c-6.3-21.6-23.2-38.4-44.8-44.7c-26.6-7.7-51.8,0.4-68.4,17
	c-0.8,0.8-1.5,1.6-2.3,2.4c-0.4,0.4-0.7,0.8-1.1,1.2c-0.7,0.8-1.4,1.7-2.1,2.5s-1.3,1.7-2,2.6c-1.3,1.8-2.4,3.6-3.5,5.5
	c-0.6,1-1.1,1.9-1.6,2.9c-0.2,0.5-0.5,1-0.7,1.5c-0.5,1-0.9,2-1.4,3c-0.6,1.5-1.2,3.1-1.8,4.7c-12.1,35.6,7,74.2,42.6,86.2
	c14,4.8,29.3,4.8,43.3,0.1c4.2-1.4,8.9-0.3,12,2.9l5.6,5.6c0.4,0.4,0.4,0.9,0,1.3c-0.1,0.1-0.1,0.1-0.2,0.2
	c-12.4,6.5-26.2,9.8-40.2,9.5c-45.8-0.8-82.9-38.8-82.5-84.6c0.3-46.4,38.2-83.7,84.6-83.4c0.4,0,0.7,0,1.1,0
	C231.6,121.9,268.1,158.5,269,203.4z"/>
<path class="st1" d="M106.2,128c-11.8,11.7-19,27.3-20.4,43.8c0,0.5,0.3,0.8,0.8,0.9c0.3,0,0.7-0.2,0.8-0.5
	c10.6-29.3,33.7-52.4,63-63c0.4-0.2,0.6-0.6,0.5-1.1c-0.1-0.3-0.4-0.5-0.8-0.5C133.5,109,117.9,116.2,106.2,128z"/>
<path class="st1" d="M91.9,113.7c-7.1,7.1-11.6,16.3-12.8,26.2c0,0.4,0.2,0.8,0.6,0.8c0.3,0,0.6-0.1,0.8-0.4
	c6.8-17.4,20.6-31.2,38-38c0.4-0.2,0.5-0.6,0.4-1c-0.1-0.3-0.4-0.5-0.8-0.4C108.2,102.1,98.9,106.6,91.9,113.7z"/>
</svg>
